<?xml version="1.0" encoding="UTF-8" standalone="no" ?>
<!DOCTYPE svg PUBLIC "-//W3C//DTD SVG 1.1//EN" "http://www.w3.org/Graphics/SVG/1.1/DTD/svg11.dtd">
<svg xmlns="http://www.w3.org/2000/svg" xmlns:xlink="http://www.w3.org/1999/xlink" version="1.1" width="400" height="300" viewBox="0 0 400 300" xml:space="preserve">
<desc>Created with Fabric.js 5.3.0</desc>
<defs>
</defs>
<g transform="matrix(1.3075886843 0 0 1.3075886913 200.2 99.5101800218)" id="Fn3Bbq-ERgpDZXRiUTzwE"  >
<linearGradient id="SVGID_1655" gradientUnits="userSpaceOnUse" gradientTransform="matrix(1 0 0 1 -152.9532967033 -75.949096745)"  x1="10.416666666666657" y1="75.94909674503938" x2="319.79548229548215" y2="75.94909674503938">
<stop offset="0%" style="stop-color:#A5A5A5;stop-opacity: 1"/>
<stop offset="17.892581730138048%" style="stop-color:#FFFFFF;stop-opacity: 1"/>
<stop offset="34.577958170790666%" style="stop-color:#909090;stop-opacity: 1"/>
<stop offset="50%" style="stop-color:#FFFFFF;stop-opacity: 1"/>
<stop offset="64.65703814883787%" style="stop-color:#909090;stop-opacity: 1"/>
<stop offset="81.77627663931123%" style="stop-color:#F1F1F1;stop-opacity: 1"/>
<stop offset="100%" style="stop-color:#676565;stop-opacity: 1"/>
</linearGradient>
<path style="stroke: rgb(0,0,0); stroke-width: 0; stroke-dasharray: none; stroke-linecap: butt; stroke-dashoffset: 0; stroke-linejoin: miter; stroke-miterlimit: 4; fill: url(#SVGID_1655); fill-rule: nonzero; opacity: 1;"  transform=" translate(0, 0)" d="M -49.54783 75.9491 L 48.645199999999996 75.9491 L 152.95329999999998 -75.94909 L 41.689559999999986 -75.94909 L -0.15546000000001214 -12.212829999999997 L -41.96429000000001 -75.94909 L -152.9533 -75.94909 z" stroke-linecap="round" />
</g>
<g transform="matrix(1.3075886843 0 0 1.3075886913 199.1970078954 144.3852472205)" id="4cLTtZDlBNIyL9rOLEcXH"  >
<path style="stroke: none; stroke-width: 1; stroke-dasharray: none; stroke-linecap: butt; stroke-dashoffset: 0; stroke-linejoin: miter; stroke-miterlimit: 4; fill: rgb(0,33,105); fill-rule: nonzero; opacity: 1;"  transform=" translate(-139.102605, -103.1204)" d="M 93.5149 137.39572 L 184.69031 137.39572 L 139.10207000000003 68.84508000000001 z" stroke-linecap="round" />
</g>
<g transform="matrix(1.3075886843 0 0 1.3075886913 108.2521608113 99.3747198563)" id="iDaHpEdjqDIor2kolHxyZ"  >
<path style="stroke: none; stroke-width: 1; stroke-dasharray: none; stroke-linecap: butt; stroke-dashoffset: 0; stroke-linejoin: miter; stroke-miterlimit: 4; fill: rgb(225,37,27); fill-rule: nonzero; opacity: 1;"  transform=" translate(-69.551035, -68.69786)" d="M 93.59903 0 L 0 0 L 93.5149 137.39572 L 139.10207 68.84508000000001 z" stroke-linecap="round" />
</g>
<g transform="matrix(1.3075886843 0 0 1.3075886913 290.3886739159 99.3747198563)" id="pSbl4ZDTwnNZt-BeZHNyi"  >
<path style="stroke: none; stroke-width: 1; stroke-dasharray: none; stroke-linecap: butt; stroke-dashoffset: 0; stroke-linejoin: miter; stroke-miterlimit: 4; fill: rgb(0,130,202); fill-rule: nonzero; opacity: 1;"  transform=" translate(-208.842925, -68.697865)" d="M 184.98477 0 L 139.10206 68.84509 L 184.69029999999998 137.39573000000001 L 278.58378999999996 0.000010000000003174137 z" stroke-linecap="round" />
</g>
<g transform="matrix(1.3075886843 0 0 1.3075886913 292.2001958377 193.7866643258)" id="M29--rNRpNgXpYrD2amYh"  >
<path style="stroke: none; stroke-width: 1; stroke-dasharray: none; stroke-linecap: butt; stroke-dashoffset: 0; stroke-linejoin: miter; stroke-miterlimit: 4; fill: rgb(0,33,105); fill-rule: nonzero; opacity: 1;"  transform=" translate(-204.27987665, -134.09436795)" d="M 197.0332794 132.3464966 L 197.0332794 130.74476629999998 L 202.9526672 130.74476629999998 L 202.9526672 132.3464966 L 200.95185850000001 132.3464966 L 200.95185850000001 137.4439697 L 199.0135956 137.4439697 L 199.0135956 132.3464966 L 197.0332794 132.3464966 z M 206.3233032 130.7447662 L 207.5453491 134.60076899999999 L 208.7458343 130.7447662 L 211.5264739 130.7447662 L 211.5264739 137.4439697 L 209.7575683 137.4439697 L 209.7575683 132.5988769 L 208.3036193 137.4439697 L 206.787094 137.4439697 L 205.333145 132.6204529 L 205.333145 137.4439697 L 203.5426634 137.4439697 L 203.5426634 130.7447662 L 206.3233032 130.7447662 z" stroke-linecap="round" />
</g>
<g transform="matrix(1.3075886843 0 0 1.3075886913 46.2440822001 271.1490011146)" id="iOUlh0-5T2FQH2Y4NnmiN"  >
<path style="stroke: none; stroke-width: 1; stroke-dasharray: none; stroke-linecap: butt; stroke-dashoffset: 0; stroke-linejoin: miter; stroke-miterlimit: 4; fill: rgb(0,33,105); fill-rule: nonzero; opacity: 1;"  transform=" translate(-28.38776, -174.19968)" d="M 39.71106 152.88055 L 28.755560000000003 180.8142 L 17.653630000000003 152.88055 L 4.256170000000003 152.88055 L 22.14157 195.51881 L 34.80221 195.51881 L 52.51935 152.88055 z" stroke-linecap="round" />
</g>
<g transform="matrix(1.3075886843 0 0 1.3075886913 125.4257407898 270.9839788452)" id="fvL_pjHt8W3DcZUWA6keu"  >
<path style="stroke: none; stroke-width: 1; stroke-dasharray: none; stroke-linecap: butt; stroke-dashoffset: 0; stroke-linejoin: miter; stroke-miterlimit: 4; fill: rgb(0,33,105); fill-rule: nonzero; opacity: 1;"  transform=" translate(-5.919915, -21.508965)" d="M 0 43.01793 L 0 0 L 11.83983 0 L 11.83983 43.01793 z" stroke-linecap="round" />
</g>
<g transform="matrix(1.3075886843 0 0 1.3075886913 239.7838738057 270.9839813296)" id="mLaJgoEI6fBREAUVipWyC"  >
<path style="stroke: none; stroke-width: 1; stroke-dasharray: none; stroke-linecap: butt; stroke-dashoffset: 0; stroke-linejoin: miter; stroke-miterlimit: 4; fill: rgb(0,33,105); fill-rule: nonzero; opacity: 1;"  transform=" translate(-5.91958, -21.50897)" d="M 0 43.01794 L 0 0 L 11.83916 0 L 11.83916 43.01794 z" stroke-linecap="round" />
</g>
<g transform="matrix(1.3075886843 0 0 1.3075886913 159.2936420481 277.1402537037)" id="Q6I7a0vJ7918B2qwlylWy"  >
<path style="stroke: none; stroke-width: 1; stroke-dasharray: none; stroke-linecap: butt; stroke-dashoffset: 0; stroke-linejoin: miter; stroke-miterlimit: 4; fill: rgb(0,33,105); fill-rule: nonzero; opacity: 1;"  transform=" translate(-114.844275, -178.781585)" d="M 121.70096 162.0023 L 115.38143 184.22690999999998 L 108.95618999999999 162.0023 L 96.46379999999999 161.98072 L 107.67156 195.58245 L 122.08063 195.58245 L 133.22475 162.0023 z" stroke-linecap="round" />
</g>
<g transform="matrix(1.3075886843 0 0 1.3075886913 260.1674918586 277.1543599705)" id="KLUrkoN9rA2V0Sbm34cbK"  >
<path style="stroke: none; stroke-width: 1; stroke-dasharray: none; stroke-linecap: butt; stroke-dashoffset: 0; stroke-linejoin: miter; stroke-miterlimit: 4; fill: rgb(0,33,105); fill-rule: nonzero; opacity: 1;"  transform=" translate(-5.93016, -16.790075)" d="M 0 33.58015 L 0 0 L 11.86032 0 L 11.86032 33.58015 z" stroke-linecap="round" />
</g>
<g transform="matrix(1.3075886843 0 0 1.3075886913 260.1674918586 246.9907745883)" id="1NJjlKIJq05LciHpkbwiX"  >
<path style="stroke: none; stroke-width: 1; stroke-dasharray: none; stroke-linecap: butt; stroke-dashoffset: 0; stroke-linejoin: miter; stroke-miterlimit: 4; fill: rgb(0,33,105); fill-rule: nonzero; opacity: 1;"  transform=" translate(-5.93016, -3.15977)" d="M 0 6.31954 L 0 0 L 11.86032 0 L 11.86032 6.31954 z" stroke-linecap="round" />
</g>
<g transform="matrix(1.3075886843 0 0 1.3075886913 294.1461124042 277.1543599705)" id="eatxncHbZK9o_VEZlumkY"  >
<path style="stroke: none; stroke-width: 1; stroke-dasharray: none; stroke-linecap: butt; stroke-dashoffset: 0; stroke-linejoin: miter; stroke-miterlimit: 4; fill: rgb(0,33,105); fill-rule: nonzero; opacity: 1;"  transform=" translate(-217.97492215, -178.7923813)" d="M 224.8003235 162.0023041 L 201.69017029999998 162.0023041 L 201.69017029999998 195.5824585 L 213.50950619999998 195.5824585 L 213.50950619999998 168.9538879 L 222.39935299999996 168.9538879 L 222.39935299999996 195.5824585 L 234.25967399999996 195.5824585 L 234.25967399999996 170.5545349 C 234.2596741 163.8348389 230.0035095 162.0023041 224.8003235 162.0023041 z" stroke-linecap="round" />
</g>
<g transform="matrix(1.3075886843 0 0 1.3075886913 205.5988987016 277.1543599705)" id="z6hXyjaywuS7cXe-73jbw"  >
<path style="stroke: none; stroke-width: 1; stroke-dasharray: none; stroke-linecap: butt; stroke-dashoffset: 0; stroke-linejoin: miter; stroke-miterlimit: 4; fill: rgb(0,33,105); fill-rule: nonzero; opacity: 1;"  transform=" translate(-150.2569809, -178.7923813)" d="M 158.1038208 195.5824585 C 163.87649539999998 195.5824585 166.74127199999998 192.8007355 166.74127199999998 187.6611939 C 166.74127199999998 183.0889893 166.76284789999997 170.2600861 166.76284789999997 170.2600861 C 166.76284789999997 163.3926239 162.21221919999996 162.0023041 157.97761539999996 162.0023041 L 142.53633119999995 162.0023041 C 138.30174259999995 162.0023041 133.75111389999995 163.3926239 133.75111389999995 170.2600861 C 133.75111389999995 170.2600861 133.77268979999994 183.08898929999998 133.77268979999994 187.6611939 C 133.77268979999994 192.8007355 136.63745119999993 195.5824585 142.43063349999994 195.5824585 L 158.1038208 195.5824585 z M 145.7171326 188.6092834 L 145.7171326 169.1016693 L 154.81730660000002 168.91183469999999 L 154.81730660000002 188.60928339999998 L 145.7171326 188.60928339999998 z" stroke-linecap="round" />
</g>
<g transform="matrix(1.3075886843 0 0 1.3075886913 90.9232603358 277.1543598398)" id="V2s0YHXiczMczdldJn-B2"  >
<path style="stroke: none; stroke-width: 1; stroke-dasharray: none; stroke-linecap: butt; stroke-dashoffset: 0; stroke-linejoin: miter; stroke-miterlimit: 4; fill: rgb(0,33,105); fill-rule: nonzero; opacity: 1;"  transform=" translate(-62.5568962, -178.7923812)" d="M 79.1468277 170.5761108 C 79.1468277 163.8348388 74.870163 162.002304 69.056488 162.002304 L 52.139679 162.002304 L 49.5068093 168.3218383 C 52.7513772 168.3218383 67.3501435 168.3218383 67.3501435 168.3218383 L 67.3501435 173.1043548 L 55.3841171 173.1043548 C 50.5174598 173.1043548 45.9669647 174.70500180000002 45.9669647 181.67817680000002 C 45.9669647 185.74343860000002 45.9669647 188.2091216 45.9669647 188.2091216 C 45.9669647 193.222473 48.9588775 195.5824584 55.1101532 195.5824584 C 59.808548 195.5824584 79.1468277 195.56088250000002 79.1468277 195.56088250000002 L 79.1468277 170.5761108 z M 67.3501434 188.6092834 L 57.3007965 188.6092834 L 57.3007965 179.4238891 L 67.3501434 179.4238891 L 67.3501434 188.6092834 z" stroke-linecap="round" />
</g>
<g transform="matrix(1.3075886843 0 0 1.3075886913 341.4294518008 277.1543600359)" id="y9Lq_2XAPM3-s_asdv9fr"  >
<path style="stroke: none; stroke-width: 1; stroke-dasharray: none; stroke-linecap: butt; stroke-dashoffset: 0; stroke-linejoin: miter; stroke-miterlimit: 4; fill: rgb(0,33,105); fill-rule: nonzero; opacity: 1;"  transform=" translate(-254.13563535, -178.79238135)" d="M 237.7565002 171.0183411 C 237.7565002 175.5269013 237.7565002 186.98706059999998 237.7565002 186.98706059999998 C 237.7565002 190.06216439999997 238.8307952 191.89578249999997 239.5469818 192.71659859999997 C 241.0850677 194.48658759999998 243.5291901 195.58245859999997 247.9104767 195.58245859999997 L 266.7860413 195.58245859999997 L 268.47201540000003 189.24134839999996 C 265.2058716 189.24134839999996 249.55332950000002 189.24134839999996 249.55332950000002 189.24134839999996 L 249.55332950000002 183.82675179999995 L 262.1092224 183.82675179999995 C 267.3123779 183.82675179999995 270.5147705 181.86801159999996 270.5147705 176.03276069999995 C 270.5147705 171.96643069999996 270.5147705 169.77578739999996 270.5147705 169.77578739999996 C 270.5147705 163.68707279999995 266.4915771 162.00230409999995 261.203186 162.00230409999995 C 258.1066589 162.00230409999995 253.19778440000002 162.00230409999995 247.8263397 162.00230409999995 C 241.9069672 162.0023041 237.7565002 164.5510406 237.7565002 171.0183411 z M 249.5533295 168.9538879 L 259.6025391 168.9538879 L 259.6025391 177.5072174 L 249.5533295 177.5072174 L 249.5533295 168.9538879 z" stroke-linecap="round" />
</g>
<g transform="matrix(1.3075886843 0 0 1.3075886913 376.234543189 294.7663042857)" id="DDhbRWa-DP_PTPpQN0gxC"  >
<path style="stroke: none; stroke-width: 1; stroke-dasharray: none; stroke-linecap: butt; stroke-dashoffset: 0; stroke-linejoin: miter; stroke-miterlimit: 4; fill: rgb(0,33,105); fill-rule: nonzero; opacity: 1;"  transform=" translate(-280.7534027, -192.26140595)" d="M 273.5068054 190.5124512 L 273.5068054 188.91180419999998 L 279.426178 188.91180419999998 L 279.426178 190.5124512 L 277.4244385 190.5124512 L 277.4244385 195.6110077 L 275.4655457 195.6110077 L 275.4655457 190.5124512 L 273.5068054 190.5124512 z M 282.796814 188.9118042 L 284.0188904 192.7667389 L 285.21936039999997 188.9118042 L 288 188.9118042 L 288 195.61100770000002 L 286.230011 195.61100770000002 L 286.230011 190.76484680000002 L 284.7555542 195.61100770000002 L 283.2596741 195.61100770000002 L 281.8066712 190.76484680000002 L 281.8066712 195.61100770000002 L 280.01617439999995 195.61100770000002 L 280.01617439999995 188.9118042 L 282.796814 188.9118042 z" stroke-linecap="round" />
</g>
</svg>